<?xml version="1.0"?>
<!DOCTYPE svg PUBLIC "-//W3C//DTD SVG 1.1//EN" "http://www.w3.org/Graphics/SVG/1.1/DTD/svg11.dtd">
<svg width="227.49088830006082mm" height="105.41509648784883mm" viewBox="0 0 227.49088830006082 105.41509648784883" xmlns="http://www.w3.org/2000/svg" version="1.1">
<g id="Part__Part2DObjectPython" transform="translate(86.014103,78.272551) scale(1,-1)">
<path id="Part__Part2DObjectPython_w0000"  d="M -68.89505992163575 29.951291683442246 L -68.89505992163575 -0.04870831655775376 L 61.10494007836425 -0.04870831655775376 L 61.10494007836425 29.951291683442246 L -68.89505992163575 29.951291683442246 " stroke="#f1f3f5" stroke-width="0.7 px" style="stroke-width:0.7;stroke-miterlimit:4;stroke-dasharray:none;stroke-linecap:square;fill:none;fill-opacity:1;fill-rule: evenodd"/>
<path id="Part__Part2DObjectPython_w0001"  d="M 80.73198878389954 -12.912242834906458 L 80.73198878389954 -6.912242834906458 L -79.26801121610046 -6.912242834906458 L -79.26801121610046 -12.912242834906458 L -64.26801121610046 -24.912242834906458 L 65.73198878389954 -24.912242834906458 L 80.73198878389954 -12.912242834906458 " stroke="#f1f3f5" stroke-width="0.7 px" style="stroke-width:0.7;stroke-miterlimit:4;stroke-dasharray:none;stroke-linecap:square;fill:none;fill-opacity:1;fill-rule: evenodd"/>
<path id="Part__Part2DObjectPython_w0002"  d="M 128.223739 34.955791000000005 L 94.223739 34.955791000000005 L 94.223739 4.955791000000006 L 128.223739 4.955791000000007 L 135.723739 12.455791000000001 L 135.723739 27.455791000000005 L 128.223739 34.955791000000005 " stroke="#f1f3f5" stroke-width="0.7 px" style="stroke-width:0.7;stroke-miterlimit:4;stroke-dasharray:none;stroke-linecap:square;fill:none;fill-opacity:1;fill-rule: evenodd"/>
<circle cx="128.223739" cy="19.955790999999998" r="3.0" stroke="#f1f3f5" stroke-width="0.7 px" style="stroke-width:0.7;stroke-miterlimit:4;stroke-dasharray:none;stroke-linecap:square;fill:none"/>
<path id="Part__Part2DObjectPython_w0004"  d="M 131.74649 75.48548500000001 L 97.74649 75.48548500000001 L 97.74649 45.48548500000001 L 131.74649 45.48548500000001 L 139.24648264711843 52.98548500000001 L 139.24648264711843 67.98548500000001 L 131.74649 75.48548500000001 " stroke="#f1f3f5" stroke-width="0.7 px" style="stroke-width:0.7;stroke-miterlimit:4;stroke-dasharray:none;stroke-linecap:square;fill:none;fill-opacity:1;fill-rule: evenodd"/>
<circle cx="131.74649" cy="60.48548499999998" r="3.0" stroke="#f1f3f5" stroke-width="0.7 px" style="stroke-width:0.7;stroke-miterlimit:4;stroke-dasharray:none;stroke-linecap:square;fill:none"/>
<path id="Part__Part2DObjectPython_w0006"  d="M 76.2162 70.042248 L 76.2162 76.042248 L -83.7838 76.042248 L -83.7838 70.042248 L -68.7838 58.042248 L 61.2162 58.042248 L 76.2162 70.042248 " stroke="#f1f3f5" stroke-width="0.7 px" style="stroke-width:0.7;stroke-miterlimit:4;stroke-dasharray:none;stroke-linecap:square;fill:none;fill-opacity:1;fill-rule: evenodd"/>
<title>b'Part__Part2DObjectPython'</title>
</g>
</svg>