<?xml version='1.0' encoding='UTF-8' standalone='no'?>
<svg xmlns:dc="http://purl.org/dc/elements/1.1/" version="1.2" xmlns:svg="http://www.w3.org/2000/svg" height="210mm" xmlns:freecad="https://www.freecad.org/wiki/index.php?title=Svg_Namespace" xmlns="http://www.w3.org/2000/svg" width="297mm" xmlns:rdf="http://www.w3.org/1999/02/22-rdf-syntax-ns#" viewBox="0 0 2970 2100" xmlns:sodipodi="http://sodipodi.sourceforge.net/DTD/sodipodi-0.dtd" xmlns:cc="http://creativecommons.org/ns#" xmlns:xlink="http://www.w3.org/1999/xlink" xmlns:inkscape="http://www.inkscape.org/namespaces/inkscape" baseProfile="tiny">
 <title>FreeCAD SVG Export</title>
 <desc>Drawing page: Page exported from FreeCAD document: ParameterTest</desc>
 <defs/>
 <g inkscape:label="TechDraw" id="Page" inkscape:groupmode="layer">
  <g transform="scale(10.000000, 10.000000)" id="Default_Template_A4_Landscape.svg" style="stroke: none;">
   <metadata id="metadata8">
    <rdf:RDF>
     <cc:Work rdf:about="">
      <dc:format>image/svg+xml</dc:format>
      <dc:type rdf:resource="http://purl.org/dc/dcmitype/StillImage"/>
     </cc:Work>
    </rdf:RDF>
   </metadata>
  </g>
  <g stroke-width="1" stroke-linecap="square" fill-rule="evenodd" id="DrawingContent" stroke="black" fill="none" stroke-linejoin="bevel">
   <g font-family="MS Shell Dlg 2" font-size="29.1042" transform="matrix(0,-10.1604,-10.0216,0,932.697,392.558)" fill-opacity="1" font-weight="400" stroke="none" font-style="normal" fill="#727980">
    <path fill-rule="evenodd" d="M18,-69 L12,-69 L18,-69" vector-effect="none"/>
   </g>
   <g stroke-opacity="1" stroke-width="0.7" stroke-linecap="square" font-family="MS Shell Dlg 2" font-size="29.1042" transform="matrix(0,-10.1604,-10.0216,0,932.697,392.558)" font-weight="400" stroke-miterlimit="4" stroke="#191919" font-style="normal" fill="none" stroke-linejoin="miter">
    <path fill-rule="evenodd" d="M18,-69 L12,-69 L18,-69" vector-effect="none"/>
   </g>
   <g font-family="MS Shell Dlg 2" font-size="29.1042" transform="matrix(0,-10.1604,-10.0216,0,932.697,392.558)" fill-opacity="1" font-weight="400" stroke="none" font-style="normal" fill="#727980">
    <path fill-rule="evenodd" d="M18,69 L18,-69 L18,69" vector-effect="none"/>
   </g>
   <g stroke-opacity="1" stroke-width="0.7" stroke-linecap="square" font-family="MS Shell Dlg 2" font-size="29.1042" transform="matrix(0,-10.1604,-10.0216,0,932.697,392.558)" font-weight="400" stroke-miterlimit="4" stroke="#191919" font-style="normal" fill="none" stroke-linejoin="miter">
    <path fill-rule="evenodd" d="M18,69 L18,-69 L18,69" vector-effect="none"/>
   </g>
   <g font-family="MS Shell Dlg 2" font-size="29.1042" transform="matrix(0,-10.1604,-10.0216,0,932.697,392.558)" fill-opacity="1" font-weight="400" stroke="none" font-style="normal" fill="#727980">
    <path fill-rule="evenodd" d="M12,69 L18,69 L12,69" vector-effect="none"/>
   </g>
   <g stroke-opacity="1" stroke-width="0.7" stroke-linecap="square" font-family="MS Shell Dlg 2" font-size="29.1042" transform="matrix(0,-10.1604,-10.0216,0,932.697,392.558)" font-weight="400" stroke-miterlimit="4" stroke="#191919" font-style="normal" fill="none" stroke-linejoin="miter">
    <path fill-rule="evenodd" d="M12,69 L18,69 L12,69" vector-effect="none"/>
   </g>
   <g font-family="MS Shell Dlg 2" font-size="29.1042" transform="matrix(0,-10.1604,-10.0216,0,932.697,392.558)" fill-opacity="1" font-weight="400" stroke="none" font-style="normal" fill="#727980">
    <path fill-rule="evenodd" d="M4.79616e-14,62 L12,69 L2.08167e-14,62 L2.04836e-14,62 L4.79616e-14,62" vector-effect="none"/>
   </g>
   <g stroke-opacity="1" stroke-width="0.7" stroke-linecap="square" font-family="MS Shell Dlg 2" font-size="29.1042" transform="matrix(0,-10.1604,-10.0216,0,932.697,392.558)" font-weight="400" stroke-miterlimit="4" stroke="#191919" font-style="normal" fill="none" stroke-linejoin="miter">
    <path fill-rule="evenodd" d="M4.79616e-14,62 L12,69 L2.08167e-14,62 L2.04836e-14,62 L4.79616e-14,62" vector-effect="none"/>
   </g>
   <g font-family="MS Shell Dlg 2" font-size="29.1042" transform="matrix(0,-10.1604,-10.0216,0,932.697,392.558)" fill-opacity="1" font-weight="400" stroke="none" font-style="normal" fill="#727980">
    <path fill-rule="evenodd" d="M-3.33067e-14,-62 L3.55271e-14,62 L2.08167e-14,62 L-2.04836e-14,-62 L-2.08167e-14,-62 L-3.33067e-14,-62" vector-effect="none"/>
   </g>
   <g stroke-opacity="1" stroke-width="0.7" stroke-linecap="square" font-family="MS Shell Dlg 2" font-size="29.1042" transform="matrix(0,-10.1604,-10.0216,0,932.697,392.558)" font-weight="400" stroke-miterlimit="4" stroke="#191919" font-style="normal" fill="none" stroke-linejoin="miter">
    <path fill-rule="evenodd" d="M-3.33067e-14,-62 L3.55271e-14,62 L2.08167e-14,62 L-2.04836e-14,-62 L-2.08167e-14,-62 L-3.33067e-14,-62" vector-effect="none"/>
   </g>
   <g font-family="MS Shell Dlg 2" font-size="29.1042" transform="matrix(0,-10.1604,-10.0216,0,932.697,392.558)" fill-opacity="1" font-weight="400" stroke="none" font-style="normal" fill="#727980">
    <path fill-rule="evenodd" d="M12,-69 L-2.04836e-14,-62 L-2.08167e-14,-62 L12,-69" vector-effect="none"/>
   </g>
   <g stroke-opacity="1" stroke-width="0.7" stroke-linecap="square" font-family="MS Shell Dlg 2" font-size="29.1042" transform="matrix(0,-10.1604,-10.0216,0,932.697,392.558)" font-weight="400" stroke-miterlimit="4" stroke="#191919" font-style="normal" fill="none" stroke-linejoin="miter">
    <path fill-rule="evenodd" d="M12,-69 L-2.04836e-14,-62 L-2.08167e-14,-62 L12,-69" vector-effect="none"/>
   </g>
   <g font-family="MS Shell Dlg 2" font-size="29.1042" transform="matrix(0,-10.1604,-10.0216,0,932.697,392.558)" fill-opacity="1" font-weight="400" stroke="none" font-style="normal" fill="#727980">
    <path fill-rule="evenodd" d="M12,-69 L-2.08167e-14,-62 L3.55271e-14,62 L12,69 L18,69 L18,-69 L12,-69" vector-effect="none"/>
   </g>
   <g stroke-opacity="1" stroke-width="0.7" stroke-linecap="square" font-family="MS Shell Dlg 2" font-size="29.1042" transform="matrix(0,-10.1604,-10.0216,0,932.697,392.558)" font-weight="400" stroke-miterlimit="4" stroke="#191919" font-style="normal" fill="none" stroke-linejoin="miter">
    <path fill-rule="evenodd" d="M12,-69 L-2.08167e-14,-62 L3.55271e-14,62 L12,69 L18,69 L18,-69 L12,-69" vector-effect="none"/>
   </g>
   <g font-family="MS Shell Dlg 2" font-size="29.1042" transform="matrix(0,-10.1604,-10.0216,0,932.697,392.558)" fill-opacity="1" font-weight="400" stroke="none" font-style="normal" fill="#727980">
    <path fill-rule="evenodd" d="M12,-69 L18,-69 L18,69 L12,69 L2.08167e-14,62 L-2.04836e-14,-62 L12,-69" vector-effect="none"/>
   </g>
   <g stroke-opacity="1" stroke-width="0.7" stroke-linecap="square" font-family="MS Shell Dlg 2" font-size="29.1042" transform="matrix(0,-10.1604,-10.0216,0,932.697,392.558)" font-weight="400" stroke-miterlimit="4" stroke="#191919" font-style="normal" fill="none" stroke-linejoin="miter">
    <path fill-rule="evenodd" d="M12,-69 L18,-69 L18,69 L12,69 L2.08167e-14,62 L-2.04836e-14,-62 L12,-69" vector-effect="none"/>
   </g>
   <g font-family="MS Shell Dlg 2" font-size="29.1042" transform="matrix(10.0977,0,0,-10.1449,1847.97,1496.03)" fill-opacity="1" font-weight="400" stroke="none" font-style="normal" fill="#727980">
    <path fill-rule="evenodd" d="M-15,61 L-15,73 L-15,61" vector-effect="none"/>
   </g>
   <g stroke-opacity="1" stroke-width="0.7" stroke-linecap="square" font-family="MS Shell Dlg 2" font-size="29.1042" transform="matrix(10.0977,0,0,-10.1449,1847.97,1496.03)" font-weight="400" stroke-miterlimit="4" stroke="#191919" font-style="normal" fill="none" stroke-linejoin="miter">
    <path fill-rule="evenodd" d="M-15,61 L-15,73 L-15,61" vector-effect="none"/>
   </g>
   <g font-family="MS Shell Dlg 2" font-size="29.1042" transform="matrix(10.0977,0,0,-10.1449,1847.97,1496.03)" fill-opacity="1" font-weight="400" stroke="none" font-style="normal" fill="#727980">
    <path fill-rule="evenodd" d="M15,61 L-15,61 L15,61" vector-effect="none"/>
   </g>
   <g stroke-opacity="1" stroke-width="0.7" stroke-linecap="square" font-family="MS Shell Dlg 2" font-size="29.1042" transform="matrix(10.0977,0,0,-10.1449,1847.97,1496.03)" font-weight="400" stroke-miterlimit="4" stroke="#191919" font-style="normal" fill="none" stroke-linejoin="miter">
    <path fill-rule="evenodd" d="M15,61 L-15,61 L15,61" vector-effect="none"/>
   </g>
   <g font-family="MS Shell Dlg 2" font-size="29.1042" transform="matrix(10.0977,0,0,-10.1449,1847.97,1496.03)" fill-opacity="1" font-weight="400" stroke="none" font-style="normal" fill="#727980">
    <path fill-rule="evenodd" d="M15,73 L15,61 L15,73" vector-effect="none"/>
   </g>
   <g stroke-opacity="1" stroke-width="0.7" stroke-linecap="square" font-family="MS Shell Dlg 2" font-size="29.1042" transform="matrix(10.0977,0,0,-10.1449,1847.97,1496.03)" font-weight="400" stroke-miterlimit="4" stroke="#191919" font-style="normal" fill="none" stroke-linejoin="miter">
    <path fill-rule="evenodd" d="M15,73 L15,61 L15,73" vector-effect="none"/>
   </g>
   <g font-family="MS Shell Dlg 2" font-size="29.1042" transform="matrix(10.0977,0,0,-10.1449,1847.97,1496.03)" fill-opacity="1" font-weight="400" stroke="none" font-style="normal" fill="#727980">
    <path fill-rule="evenodd" d="M7,81 L15,73 L7,81" vector-effect="none"/>
   </g>
   <g stroke-opacity="1" stroke-width="0.7" stroke-linecap="square" font-family="MS Shell Dlg 2" font-size="29.1042" transform="matrix(10.0977,0,0,-10.1449,1847.97,1496.03)" font-weight="400" stroke-miterlimit="4" stroke="#191919" font-style="normal" fill="none" stroke-linejoin="miter">
    <path fill-rule="evenodd" d="M7,81 L15,73 L7,81" vector-effect="none"/>
   </g>
   <g font-family="MS Shell Dlg 2" font-size="29.1042" transform="matrix(10.0977,0,0,-10.1449,1847.97,1496.03)" fill-opacity="1" font-weight="400" stroke="none" font-style="normal" fill="#727980">
    <path fill-rule="evenodd" d="M-7,81 L7,81 L-7,81" vector-effect="none"/>
   </g>
   <g stroke-opacity="1" stroke-width="0.7" stroke-linecap="square" font-family="MS Shell Dlg 2" font-size="29.1042" transform="matrix(10.0977,0,0,-10.1449,1847.97,1496.03)" font-weight="400" stroke-miterlimit="4" stroke="#191919" font-style="normal" fill="none" stroke-linejoin="miter">
    <path fill-rule="evenodd" d="M-7,81 L7,81 L-7,81" vector-effect="none"/>
   </g>
   <g font-family="MS Shell Dlg 2" font-size="29.1042" transform="matrix(10.0977,0,0,-10.1449,1847.97,1496.03)" fill-opacity="1" font-weight="400" stroke="none" font-style="normal" fill="#727980">
    <path fill-rule="evenodd" d="M-15,73 L-7,81 L-15,73" vector-effect="none"/>
   </g>
   <g stroke-opacity="1" stroke-width="0.7" stroke-linecap="square" font-family="MS Shell Dlg 2" font-size="29.1042" transform="matrix(10.0977,0,0,-10.1449,1847.97,1496.03)" font-weight="400" stroke-miterlimit="4" stroke="#191919" font-style="normal" fill="none" stroke-linejoin="miter">
    <path fill-rule="evenodd" d="M-15,73 L-7,81 L-15,73" vector-effect="none"/>
   </g>
   <g font-family="MS Shell Dlg 2" font-size="29.1042" transform="matrix(10.0977,0,0,-10.1449,1847.97,1496.03)" fill-opacity="1" font-weight="400" stroke="none" font-style="normal" fill="#727980">
    <circle r="3.1" cy="73.5508" cx="0"/>
   </g>
   <g stroke-opacity="1" stroke-width="0.7" stroke-linecap="square" font-family="MS Shell Dlg 2" font-size="29.1042" transform="matrix(10.0977,0,0,-10.1449,1847.97,1496.03)" font-weight="400" stroke-miterlimit="4" stroke="#191919" font-style="normal" fill="none" stroke-linejoin="miter">
    <circle r="3.1" cy="73.5508" cx="0"/>
   </g>
   <g font-family="MS Shell Dlg 2" font-size="29.1042" transform="matrix(10.0977,0,0,-10.1449,1847.97,1496.03)" fill-opacity="1" font-weight="400" stroke="none" font-style="normal" fill="#727980">
    <circle r="3.1" cy="73.5508" cx="0"/>
   </g>
   <g stroke-opacity="1" stroke-width="0.7" stroke-linecap="square" font-family="MS Shell Dlg 2" font-size="29.1042" transform="matrix(10.0977,0,0,-10.1449,1847.97,1496.03)" font-weight="400" stroke-miterlimit="4" stroke="#191919" font-style="normal" fill="none" stroke-linejoin="miter">
    <circle r="3.1" cy="73.5508" cx="0"/>
   </g>
   <g font-family="MS Shell Dlg 2" font-size="29.1042" transform="matrix(10.0977,0,0,-10.1449,1847.97,1496.03)" fill-opacity="1" font-weight="400" stroke="none" font-style="normal" fill="#727980">
    <circle r="3.1" cy="73.5508" cx="0"/>
   </g>
   <g stroke-opacity="1" stroke-width="0.7" stroke-linecap="square" font-family="MS Shell Dlg 2" font-size="29.1042" transform="matrix(10.0977,0,0,-10.1449,1847.97,1496.03)" font-weight="400" stroke-miterlimit="4" stroke="#191919" font-style="normal" fill="none" stroke-linejoin="miter">
    <circle r="3.1" cy="73.5508" cx="0"/>
   </g>
   <g font-family="MS Shell Dlg 2" font-size="29.1042" transform="matrix(10.0977,0,0,-10.1449,1847.97,-368.701)" fill-opacity="1" font-weight="400" stroke="none" font-style="normal" fill="#727980">
    <path fill-rule="evenodd" d="M15,-61 L15,-73 L15,-61" vector-effect="none"/>
   </g>
   <g stroke-opacity="1" stroke-width="0.7" stroke-linecap="square" font-family="MS Shell Dlg 2" font-size="29.1042" transform="matrix(10.0977,0,0,-10.1449,1847.97,-368.701)" font-weight="400" stroke-miterlimit="4" stroke="#191919" font-style="normal" fill="none" stroke-linejoin="miter">
    <path fill-rule="evenodd" d="M15,-61 L15,-73 L15,-61" vector-effect="none"/>
   </g>
   <g font-family="MS Shell Dlg 2" font-size="29.1042" transform="matrix(10.0977,0,0,-10.1449,1847.97,-368.701)" fill-opacity="1" font-weight="400" stroke="none" font-style="normal" fill="#727980">
    <path fill-rule="evenodd" d="M-15,-61 L15,-61 L-15,-61" vector-effect="none"/>
   </g>
   <g stroke-opacity="1" stroke-width="0.7" stroke-linecap="square" font-family="MS Shell Dlg 2" font-size="29.1042" transform="matrix(10.0977,0,0,-10.1449,1847.97,-368.701)" font-weight="400" stroke-miterlimit="4" stroke="#191919" font-style="normal" fill="none" stroke-linejoin="miter">
    <path fill-rule="evenodd" d="M-15,-61 L15,-61 L-15,-61" vector-effect="none"/>
   </g>
   <g font-family="MS Shell Dlg 2" font-size="29.1042" transform="matrix(10.0977,0,0,-10.1449,1847.97,-368.701)" fill-opacity="1" font-weight="400" stroke="none" font-style="normal" fill="#727980">
    <path fill-rule="evenodd" d="M-15,-73 L-15,-61 L-15,-73" vector-effect="none"/>
   </g>
   <g stroke-opacity="1" stroke-width="0.7" stroke-linecap="square" font-family="MS Shell Dlg 2" font-size="29.1042" transform="matrix(10.0977,0,0,-10.1449,1847.97,-368.701)" font-weight="400" stroke-miterlimit="4" stroke="#191919" font-style="normal" fill="none" stroke-linejoin="miter">
    <path fill-rule="evenodd" d="M-15,-73 L-15,-61 L-15,-73" vector-effect="none"/>
   </g>
   <g font-family="MS Shell Dlg 2" font-size="29.1042" transform="matrix(10.0977,0,0,-10.1449,1847.97,-368.701)" fill-opacity="1" font-weight="400" stroke="none" font-style="normal" fill="#727980">
    <path fill-rule="evenodd" d="M-7,-81 L-15,-73 L-7,-81" vector-effect="none"/>
   </g>
   <g stroke-opacity="1" stroke-width="0.7" stroke-linecap="square" font-family="MS Shell Dlg 2" font-size="29.1042" transform="matrix(10.0977,0,0,-10.1449,1847.97,-368.701)" font-weight="400" stroke-miterlimit="4" stroke="#191919" font-style="normal" fill="none" stroke-linejoin="miter">
    <path fill-rule="evenodd" d="M-7,-81 L-15,-73 L-7,-81" vector-effect="none"/>
   </g>
   <g font-family="MS Shell Dlg 2" font-size="29.1042" transform="matrix(10.0977,0,0,-10.1449,1847.97,-368.701)" fill-opacity="1" font-weight="400" stroke="none" font-style="normal" fill="#727980">
    <path fill-rule="evenodd" d="M7,-81 L-7,-81 L7,-81" vector-effect="none"/>
   </g>
   <g stroke-opacity="1" stroke-width="0.7" stroke-linecap="square" font-family="MS Shell Dlg 2" font-size="29.1042" transform="matrix(10.0977,0,0,-10.1449,1847.97,-368.701)" font-weight="400" stroke-miterlimit="4" stroke="#191919" font-style="normal" fill="none" stroke-linejoin="miter">
    <path fill-rule="evenodd" d="M7,-81 L-7,-81 L7,-81" vector-effect="none"/>
   </g>
   <g font-family="MS Shell Dlg 2" font-size="29.1042" transform="matrix(10.0977,0,0,-10.1449,1847.97,-368.701)" fill-opacity="1" font-weight="400" stroke="none" font-style="normal" fill="#727980">
    <path fill-rule="evenodd" d="M15,-73 L7,-81 L15,-73" vector-effect="none"/>
   </g>
   <g stroke-opacity="1" stroke-width="0.7" stroke-linecap="square" font-family="MS Shell Dlg 2" font-size="29.1042" transform="matrix(10.0977,0,0,-10.1449,1847.97,-368.701)" font-weight="400" stroke-miterlimit="4" stroke="#191919" font-style="normal" fill="none" stroke-linejoin="miter">
    <path fill-rule="evenodd" d="M15,-73 L7,-81 L15,-73" vector-effect="none"/>
   </g>
   <g font-family="MS Shell Dlg 2" font-size="29.1042" transform="matrix(10.0977,0,0,-10.1449,1847.97,-368.701)" fill-opacity="1" font-weight="400" stroke="none" font-style="normal" fill="#727980">
    <circle r="3.1" cy="-73.5508" cx="-1.33227e-15"/>
   </g>
   <g stroke-opacity="1" stroke-width="0.7" stroke-linecap="square" font-family="MS Shell Dlg 2" font-size="29.1042" transform="matrix(10.0977,0,0,-10.1449,1847.97,-368.701)" font-weight="400" stroke-miterlimit="4" stroke="#191919" font-style="normal" fill="none" stroke-linejoin="miter">
    <circle r="3.1" cy="-73.5508" cx="-1.33227e-15"/>
   </g>
   <g font-family="MS Shell Dlg 2" font-size="29.1042" transform="matrix(10.0977,0,0,-10.1449,1847.97,-368.701)" fill-opacity="1" font-weight="400" stroke="none" font-style="normal" fill="#727980">
    <circle r="3.1" cy="-73.5508" cx="-1.33227e-15"/>
   </g>
   <g stroke-opacity="1" stroke-width="0.7" stroke-linecap="square" font-family="MS Shell Dlg 2" font-size="29.1042" transform="matrix(10.0977,0,0,-10.1449,1847.97,-368.701)" font-weight="400" stroke-miterlimit="4" stroke="#191919" font-style="normal" fill="none" stroke-linejoin="miter">
    <circle r="3.1" cy="-73.5508" cx="-1.33227e-15"/>
   </g>
   <g font-family="MS Shell Dlg 2" font-size="29.1042" transform="matrix(10.0977,0,0,-10.1449,1847.97,-368.701)" fill-opacity="1" font-weight="400" stroke="none" font-style="normal" fill="#727980">
    <circle r="3.1" cy="-73.5508" cx="-1.33227e-15"/>
   </g>
   <g stroke-opacity="1" stroke-width="0.7" stroke-linecap="square" font-family="MS Shell Dlg 2" font-size="29.1042" transform="matrix(10.0977,0,0,-10.1449,1847.97,-368.701)" font-weight="400" stroke-miterlimit="4" stroke="#191919" font-style="normal" fill="none" stroke-linejoin="miter">
    <circle r="3.1" cy="-73.5508" cx="-1.33227e-15"/>
   </g>
   <g font-family="MS Shell Dlg 2" font-size="29.1042" transform="matrix(0,-10.0977,-10.0241,0,932.697,973.462)" fill-opacity="1" font-weight="400" stroke="none" font-style="normal" fill="#727980">
    <path fill-rule="evenodd" d="M-15,-62 L-15,62 L-15,-62" vector-effect="none"/>
   </g>
   <g stroke-opacity="1" stroke-width="0.7" stroke-linecap="square" font-family="MS Shell Dlg 2" font-size="29.1042" transform="matrix(0,-10.0977,-10.0241,0,932.697,973.462)" font-weight="400" stroke-miterlimit="4" stroke="#191919" font-style="normal" fill="none" stroke-linejoin="miter">
    <path fill-rule="evenodd" d="M-15,-62 L-15,62 L-15,-62" vector-effect="none"/>
   </g>
   <g font-family="MS Shell Dlg 2" font-size="29.1042" transform="matrix(0,-10.0977,-10.0241,0,932.697,973.462)" fill-opacity="1" font-weight="400" stroke="none" font-style="normal" fill="#727980">
    <path fill-rule="evenodd" d="M15,-62 L-15,-62 L15,-62" vector-effect="none"/>
   </g>
   <g stroke-opacity="1" stroke-width="0.7" stroke-linecap="square" font-family="MS Shell Dlg 2" font-size="29.1042" transform="matrix(0,-10.0977,-10.0241,0,932.697,973.462)" font-weight="400" stroke-miterlimit="4" stroke="#191919" font-style="normal" fill="none" stroke-linejoin="miter">
    <path fill-rule="evenodd" d="M15,-62 L-15,-62 L15,-62" vector-effect="none"/>
   </g>
   <g font-family="MS Shell Dlg 2" font-size="29.1042" transform="matrix(0,-10.0977,-10.0241,0,932.697,973.462)" fill-opacity="1" font-weight="400" stroke="none" font-style="normal" fill="#727980">
    <path fill-rule="evenodd" d="M15,62 L15,-62 L15,62" vector-effect="none"/>
   </g>
   <g stroke-opacity="1" stroke-width="0.7" stroke-linecap="square" font-family="MS Shell Dlg 2" font-size="29.1042" transform="matrix(0,-10.0977,-10.0241,0,932.697,973.462)" font-weight="400" stroke-miterlimit="4" stroke="#191919" font-style="normal" fill="none" stroke-linejoin="miter">
    <path fill-rule="evenodd" d="M15,62 L15,-62 L15,62" vector-effect="none"/>
   </g>
   <g font-family="MS Shell Dlg 2" font-size="29.1042" transform="matrix(0,-10.0977,-10.0241,0,932.697,973.462)" fill-opacity="1" font-weight="400" stroke="none" font-style="normal" fill="#727980">
    <path fill-rule="evenodd" d="M-15,62 L15,62 L-15,62" vector-effect="none"/>
   </g>
   <g stroke-opacity="1" stroke-width="0.7" stroke-linecap="square" font-family="MS Shell Dlg 2" font-size="29.1042" transform="matrix(0,-10.0977,-10.0241,0,932.697,973.462)" font-weight="400" stroke-miterlimit="4" stroke="#191919" font-style="normal" fill="none" stroke-linejoin="miter">
    <path fill-rule="evenodd" d="M-15,62 L15,62 L-15,62" vector-effect="none"/>
   </g>
   <g font-family="MS Shell Dlg 2" font-size="29.1042" transform="matrix(0,-10.0977,-10.0241,0,932.697,973.462)" fill-opacity="1" font-weight="400" stroke="none" font-style="normal" fill="#727980">
    <path fill-rule="evenodd" d="M-15,-62 L15,-62 L15,62 L-15,62 L-15,-62" vector-effect="none"/>
   </g>
   <g stroke-opacity="1" stroke-width="0.7" stroke-linecap="square" font-family="MS Shell Dlg 2" font-size="29.1042" transform="matrix(0,-10.0977,-10.0241,0,932.697,973.462)" font-weight="400" stroke-miterlimit="4" stroke="#191919" font-style="normal" fill="none" stroke-linejoin="miter">
    <path fill-rule="evenodd" d="M-15,-62 L15,-62 L15,62 L-15,62 L-15,-62" vector-effect="none"/>
   </g>
   <g font-family="MS Shell Dlg 2" font-size="29.1042" transform="matrix(0,-10.0977,-10.0241,0,932.697,973.462)" fill-opacity="1" font-weight="400" stroke="none" font-style="normal" fill="#727980">
    <path fill-rule="evenodd" d="M-15,62 L-15,-62 L15,-62 L15,62 L-15,62" vector-effect="none"/>
   </g>
   <g stroke-opacity="1" stroke-width="0.7" stroke-linecap="square" font-family="MS Shell Dlg 2" font-size="29.1042" transform="matrix(0,-10.0977,-10.0241,0,932.697,973.462)" font-weight="400" stroke-miterlimit="4" stroke="#191919" font-style="normal" fill="none" stroke-linejoin="miter">
    <path fill-rule="evenodd" d="M-15,62 L-15,-62 L15,-62 L15,62 L-15,62" vector-effect="none"/>
   </g>
   <g font-family="MS Shell Dlg 2" font-size="29.1042" transform="matrix(0,-10.1604,-10.0216,0,932.697,698.16)" fill-opacity="1" font-weight="400" stroke="none" font-style="normal" fill="#727980">
    <path fill-rule="evenodd" d="M18,-69 L12,-69 L18,-69" vector-effect="none"/>
   </g>
   <g stroke-opacity="1" stroke-width="0.7" stroke-linecap="square" font-family="MS Shell Dlg 2" font-size="29.1042" transform="matrix(0,-10.1604,-10.0216,0,932.697,698.16)" font-weight="400" stroke-miterlimit="4" stroke="#191919" font-style="normal" fill="none" stroke-linejoin="miter">
    <path fill-rule="evenodd" d="M18,-69 L12,-69 L18,-69" vector-effect="none"/>
   </g>
   <g font-family="MS Shell Dlg 2" font-size="29.1042" transform="matrix(0,-10.1604,-10.0216,0,932.697,698.16)" fill-opacity="1" font-weight="400" stroke="none" font-style="normal" fill="#727980">
    <path fill-rule="evenodd" d="M18,69 L18,-69 L18,69" vector-effect="none"/>
   </g>
   <g stroke-opacity="1" stroke-width="0.7" stroke-linecap="square" font-family="MS Shell Dlg 2" font-size="29.1042" transform="matrix(0,-10.1604,-10.0216,0,932.697,698.16)" font-weight="400" stroke-miterlimit="4" stroke="#191919" font-style="normal" fill="none" stroke-linejoin="miter">
    <path fill-rule="evenodd" d="M18,69 L18,-69 L18,69" vector-effect="none"/>
   </g>
   <g font-family="MS Shell Dlg 2" font-size="29.1042" transform="matrix(0,-10.1604,-10.0216,0,932.697,698.16)" fill-opacity="1" font-weight="400" stroke="none" font-style="normal" fill="#727980">
    <path fill-rule="evenodd" d="M12,69 L18,69 L12,69" vector-effect="none"/>
   </g>
   <g stroke-opacity="1" stroke-width="0.7" stroke-linecap="square" font-family="MS Shell Dlg 2" font-size="29.1042" transform="matrix(0,-10.1604,-10.0216,0,932.697,698.16)" font-weight="400" stroke-miterlimit="4" stroke="#191919" font-style="normal" fill="none" stroke-linejoin="miter">
    <path fill-rule="evenodd" d="M12,69 L18,69 L12,69" vector-effect="none"/>
   </g>
   <g font-family="MS Shell Dlg 2" font-size="29.1042" transform="matrix(0,-10.1604,-10.0216,0,932.697,698.16)" fill-opacity="1" font-weight="400" stroke="none" font-style="normal" fill="#727980">
    <path fill-rule="evenodd" d="M4.79616e-14,62 L12,69 L2.08167e-14,62 L2.04836e-14,62 L4.79616e-14,62" vector-effect="none"/>
   </g>
   <g stroke-opacity="1" stroke-width="0.7" stroke-linecap="square" font-family="MS Shell Dlg 2" font-size="29.1042" transform="matrix(0,-10.1604,-10.0216,0,932.697,698.16)" font-weight="400" stroke-miterlimit="4" stroke="#191919" font-style="normal" fill="none" stroke-linejoin="miter">
    <path fill-rule="evenodd" d="M4.79616e-14,62 L12,69 L2.08167e-14,62 L2.04836e-14,62 L4.79616e-14,62" vector-effect="none"/>
   </g>
   <g font-family="MS Shell Dlg 2" font-size="29.1042" transform="matrix(0,-10.1604,-10.0216,0,932.697,698.16)" fill-opacity="1" font-weight="400" stroke="none" font-style="normal" fill="#727980">
    <path fill-rule="evenodd" d="M-3.33067e-14,-62 L3.55271e-14,62 L2.08167e-14,62 L-2.04836e-14,-62 L-2.08167e-14,-62 L-3.33067e-14,-62" vector-effect="none"/>
   </g>
   <g stroke-opacity="1" stroke-width="0.7" stroke-linecap="square" font-family="MS Shell Dlg 2" font-size="29.1042" transform="matrix(0,-10.1604,-10.0216,0,932.697,698.16)" font-weight="400" stroke-miterlimit="4" stroke="#191919" font-style="normal" fill="none" stroke-linejoin="miter">
    <path fill-rule="evenodd" d="M-3.33067e-14,-62 L3.55271e-14,62 L2.08167e-14,62 L-2.04836e-14,-62 L-2.08167e-14,-62 L-3.33067e-14,-62" vector-effect="none"/>
   </g>
   <g font-family="MS Shell Dlg 2" font-size="29.1042" transform="matrix(0,-10.1604,-10.0216,0,932.697,698.16)" fill-opacity="1" font-weight="400" stroke="none" font-style="normal" fill="#727980">
    <path fill-rule="evenodd" d="M12,-69 L-2.04836e-14,-62 L-2.08167e-14,-62 L12,-69" vector-effect="none"/>
   </g>
   <g stroke-opacity="1" stroke-width="0.7" stroke-linecap="square" font-family="MS Shell Dlg 2" font-size="29.1042" transform="matrix(0,-10.1604,-10.0216,0,932.697,698.16)" font-weight="400" stroke-miterlimit="4" stroke="#191919" font-style="normal" fill="none" stroke-linejoin="miter">
    <path fill-rule="evenodd" d="M12,-69 L-2.04836e-14,-62 L-2.08167e-14,-62 L12,-69" vector-effect="none"/>
   </g>
   <g font-family="MS Shell Dlg 2" font-size="29.1042" transform="matrix(0,-10.1604,-10.0216,0,932.697,698.16)" fill-opacity="1" font-weight="400" stroke="none" font-style="normal" fill="#727980">
    <path fill-rule="evenodd" d="M12,-69 L-2.08167e-14,-62 L3.55271e-14,62 L12,69 L18,69 L18,-69 L12,-69" vector-effect="none"/>
   </g>
   <g stroke-opacity="1" stroke-width="0.7" stroke-linecap="square" font-family="MS Shell Dlg 2" font-size="29.1042" transform="matrix(0,-10.1604,-10.0216,0,932.697,698.16)" font-weight="400" stroke-miterlimit="4" stroke="#191919" font-style="normal" fill="none" stroke-linejoin="miter">
    <path fill-rule="evenodd" d="M12,-69 L-2.08167e-14,-62 L3.55271e-14,62 L12,69 L18,69 L18,-69 L12,-69" vector-effect="none"/>
   </g>
   <g font-family="MS Shell Dlg 2" font-size="29.1042" transform="matrix(0,-10.1604,-10.0216,0,932.697,698.16)" fill-opacity="1" font-weight="400" stroke="none" font-style="normal" fill="#727980">
    <path fill-rule="evenodd" d="M12,-69 L18,-69 L18,69 L12,69 L2.08167e-14,62 L-2.04836e-14,-62 L12,-69" vector-effect="none"/>
   </g>
   <g stroke-opacity="1" stroke-width="0.7" stroke-linecap="square" font-family="MS Shell Dlg 2" font-size="29.1042" transform="matrix(0,-10.1604,-10.0216,0,932.697,698.16)" font-weight="400" stroke-miterlimit="4" stroke="#191919" font-style="normal" fill="none" stroke-linejoin="miter">
    <path fill-rule="evenodd" d="M12,-69 L18,-69 L18,69 L12,69 L2.08167e-14,62 L-2.04836e-14,-62 L12,-69" vector-effect="none"/>
   </g>
  </g>
 </g>
</svg>
